<svg width="512" height="512" viewBox="0 0 512 512" fill="none" xmlns="http://www.w3.org/2000/svg">
  <defs>
    <linearGradient id="iconGradient" x1="0%" y1="0%" x2="100%" y2="100%">
      <stop offset="0%" style="stop-color:#60A5FA" />
      <stop offset="100%" style="stop-color:#C084FC" />
    </linearGradient>
  </defs>
  <rect width="512" height="512" rx="128" fill="#1E293B"/> <!-- slate-800 background -->
  <path d="M256 128c-62.4 0-112 49.6-112 112 0 30.4 12.8 59.2 32 80-19.2 20.8-32 49.6-32 80 0 62.4 49.6 112 112 112s112-49.6 112-112c0-30.4-12.8-59.2-32-80 19.2-20.8 32-49.6 32-80 0-62.4-49.6-112-112-112zm0 32c44.8 0 80 35.2 80 80s-35.2 80-80 80-80-35.2-80-80 35.2-80 80-80zm0 192c44.8 0 80 35.2 80 80s-35.2 80-80 80-80-35.2-80-80 35.2-80 80-80z" fill="url(#iconGradient)"/>
  <path d="M256 208c17.6 0 32 14.4 32 32s-14.4 32-32 32-32-14.4-32-32 14.4-32 32-32zm0 192c17.6 0 32 14.4 32 32s-14.4 32-32 32-32-14.4-32-32 14.4-32 32-32z" fill="#1E293B"/>
</svg>