<svg width="32" height="32" viewBox="0 0 32 32" fill="none" xmlns="http://www.w3.org/2000/svg">
  <defs>
    <linearGradient id="brainGradient" x1="0%" y1="0%" x2="100%" y2="100%">
      <stop offset="0%" style="stop-color:#60A5FA" /> <!-- blue-400 -->
      <stop offset="100%" style="stop-color:#C084FC" /> <!-- purple-400 -->
    </linearGradient>
  </defs>
  <path d="M16 4C12.1 4 9 7.1 9 11c0 1.9.8 3.7 2 5-1.2 1.3-2 3.1-2 5 0 3.9 3.1 7 7 7s7-3.1 7-7c0-1.9-.8-3.7-2-5 1.2-1.3 2-3.1 2-5 0-3.9-3.1-7-7-7zm0 2c2.8 0 5 2.2 5 5s-2.2 5-5 5-5-2.2-5-5 2.2-5 5-5zm0 12c2.8 0 5 2.2 5 5s-2.2 5-5 5-5-2.2-5-5 2.2-5 5-5z" fill="url(#brainGradient)"/>
  <path d="M16 10c1.1 0 2 .9 2 2s-.9 2-2 2-2-.9-2-2 .9-2 2-2zm0 12c1.1 0 2 .9 2 2s-.9 2-2 2-2-.9-2-2 .9-2 2-2z" fill="#1E293B"/> <!-- slate-800 -->
</svg>
